<?xml version="1.0" encoding="utf-8"?>
<!DOCTYPE svg PUBLIC "-//W3C//DTD SVG 1.1//EN" "http://www.w3.org/Graphics/SVG/1.1/DTD/svg11.dtd" [
	<!ENTITY ns_svg "http://www.w3.org/2000/svg">
	<!ENTITY ns_xlink "http://www.w3.org/1999/xlink">
]>
<svg xmlns="http://www.w3.org/2000/svg" xml:space="preserve" width="628.89" height="297.037" overflow="visible">
  <path fill="#E9609B" d="M264.719 192.029v-58.32c0-8.16.96-31.2-28.32-31.2s-50.64 16.08-60.24 26.64c-9.6 10.56-5.52 20.88-4.32 23.76 1.2 2.88 5.52 8.4 8.16 10.8 2.64 2.4 4.32.24 4.32.24 11.04-23.04 33.36-32.88 40.8-32.88s8.64 5.76 8.64 7.68-.24 14.16-29.52 25.2-38.88 29.28-38.88 29.28c-7.68-17.52-29.52-24.96-29.52-24.96s22.32-16.56 22.32-45.6c0-54.959-60.959-54.479-62.64-54.479s-22.08-.96-54.24 14.88C9.12 98.909 0 126.989 0 144.269s10.56 24.72 10.56 24.72 12.919 10.075 14.88 11.04c1.96.965 1.44-2.16 1.44-2.16s-9.84-30.96 11.28-54.96 51.36-25.2 55.44-25.2c4.08 0 28.8.96 28.8 26.16 0 35.52-38.64 42.24-44.4 43.92s-5.28-6.48-5.28-6.48v-40.08l-38.4 22.8c6 8.64 5.28 23.04 5.28 23.04v124.8c15.84 4.8 38.16 9.6 75.36-2.16s49.92-44.88 49.92-44.88 7.2 12.48 27.36 12.48c29.04 0 42.959-20.16 42.959-20.16s2.88 2.4 2.88 4.32 2.16 3.6 2.16 3.6c14.16-1.92 30.72-8.64 30.72-8.64-7.92-10.56-6.24-35.52-6.24-44.4zM86.4 266.429c-8.88 0-13.2-1.92-13.2-1.92v-65.76c7.2-4.08 20.16-7.68 29.52-7.68s29.28.96 29.28 29.04c0 34.32-36.72 46.32-45.6 46.32zm117.359-39.12c-5.28 0-11.76-.48-11.76-13.44 0-18 39.84-35.76 39.84-35.76 1.965-.9 1.92 2.88 1.92 2.88 0 43.44-24.72 46.32-30 46.32zm211.042-166.08c-11.153 0-29.482 4.56-39.803 29.76v-75.12l-37.8 22.56s5.94 9.12 5.94 19.44v26.64s-4.979-4.8-11.7-4.8-14.16 4.56-22.08 18.24c0 0-2.4-8.64-1.92-10.56 0 0 3.502-5.842-33.937 18.397 0 0 .337 2.962 2.977 6.083 2.64 3.12 3.84 13.2 3.84 16.08v79.44s.582 12.979-2.88 29.04l41.04-9.84s-6.96-11.76-6.96-31.44v-53.28s-1.74-27.84 31.62-38.88v109.68s7.02 3.36 25.98 3.36 83.115-4.32 83.115-97.2c0-55.079-26.28-57.6-37.432-57.6zm-31.523 125.52c-6.72 0-8.28-2.4-8.28-2.4v-87.36c11.28 18.96 15.96 20.4 15.96 20.4 4.32-22.8 13.92-26.16 16.32-26.16 2.4 0 13.44-.48 13.44 29.52 0 49.2-30.72 66-37.44 66zM475.198.029c-1.047-.077-19.2-1.2-19.2 22.08 0 18.48 12.91 19.2 18.24 19.2 5.329 0 16.32-2.64 16.32-21.84 0-19.199-14.313-19.362-15.36-19.44zm-21.6 66.48s5.52 6.24 5.52 22.32v78.96s1.68 13.92-3.6 27.6l41.04-9.6s-5.52-4.8-5.52-25.44V43.709s-.96-1.92-37.44 22.8zm139.199 25.92c-.48 31.2-17.76 53.28-34.08 53.28s-21.12-10.8-21.12-10.8l71.52-63.36c-.72-13.44-12.96-43.44-45.12-43.44-66 0-67.68 76.56-67.68 84.72s8.64 62.16 52.56 62.16c55.2 0 63.36-45.6 63.36-61.2s-19.44-21.36-19.44-21.36zm-52.08-26.16c13.44-17.04 28.56-14.88 34.8-.24l-44.879 37.68s-3.361-20.4 10.079-37.44zm54.274-50.957h14.551v2.136H603.5v15.796h-2.466V17.448h-6.042v-2.136zm16.711 17.932V15.312h3.479l5.151 15.161 5.115-15.161h3.442v17.932h-2.307V22.66c0-.366.008-.972.024-1.819.016-.846.024-1.754.024-2.722l-5.115 15.125h-2.405l-5.151-15.125v.549c0 .439.01 1.109.031 2.008.02.899.03 1.561.03 1.983v10.583h-2.318z"/>
</svg>